<?xml version="1.0" encoding="utf-8"?>
<svg width="2710px" height="1437px" viewBox="0 0 2710 1437" version="1.1" xmlns:xlink="http://www.w3.org/1999/xlink" xmlns="http://www.w3.org/2000/svg">
  <defs>
    <path d="M0 0L2710 0L2710 1294L0 1294L0 0Z" id="path_1" />
    <clipPath id="clip_1">
      <use xlink:href="#path_1" />
    </clipPath>
  </defs>
  <g id="إطار" clip-path="url(#clip_1)">
    <path d="M0 0L2710 0L2710 1294L0 1294L0 0Z" id="إطار" fill="#222222" fill-rule="evenodd" stroke="none" />
    <path d="M149 200.5C149 138.368 199.368 88 261.5 88C323.632 88 374 138.368 374 200.5C374 262.632 323.632 313 261.5 313C199.368 313 149 262.632 149 200.5Z" id="بيضاوي-22" fill="#2E86C1" fill-rule="evenodd" stroke="none" />
    <path d="M1932 258.4C1932 196.268 1982.37 145.9 2044.5 145.9C2106.63 145.9 2157 196.268 2157 258.4C2157 320.532 2106.63 370.9 2044.5 370.9C1982.37 370.9 1932 320.532 1932 258.4Z" id="بيضاوي-54" fill="#222222" fill-rule="evenodd" stroke="none" />
    <path d="M37 562.5C37 500.368 87.368 450 149.5 450C211.632 450 262 500.368 262 562.5C262 624.632 211.632 675 149.5 675C87.368 675 37 624.632 37 562.5Z" id="بيضاوي-38" fill="#2E86C1" fill-rule="evenodd" stroke="none" />
    <path d="M-100.818 1183.86C-129.352 1049.62 -57.0146 920.5 60.7525 895.468C178.52 870.435 297.12 958.969 325.655 1093.21C354.189 1227.46 281.852 1356.57 164.085 1381.61C46.3176 1406.64 -72.2832 1318.11 -100.818 1183.86Z" id="بيضاوي-45" fill="#2E86C1" fill-rule="evenodd" stroke="none" />
    <path d="M2485 1181.5C2485 1119.37 2535.37 1069 2597.5 1069C2659.63 1069 2710 1119.37 2710 1181.5C2710 1243.63 2659.63 1294 2597.5 1294C2535.37 1294 2485 1243.63 2485 1181.5Z" id="بيضاوي-23" fill="#2E86C1" fill-rule="evenodd" stroke="none" />
    <path d="M2157 537C2157 426.543 2246.54 337 2357 337C2467.46 337 2557 426.543 2557 537C2557 647.457 2467.46 737 2357 737C2246.54 737 2157 647.457 2157 537Z" id="بيضاوي-40" fill="#222222" fill-rule="evenodd" stroke="none" />
    <path d="M1635 956.5C1635 894.368 1685.37 844 1747.5 844C1809.63 844 1860 894.368 1860 956.5C1860 1018.63 1809.63 1069 1747.5 1069C1685.37 1069 1635 1018.63 1635 956.5Z" id="بيضاوي-24" fill="#2E86C1" fill-rule="evenodd" stroke="none" />
    <path d="M917 557C917 304.606 1037.61 83 1290 83C1542.39 83 1747 287.606 1747 540C1747 792.394 1542.39 997 1290 997C1037.61 997 917 809.394 917 557Z" id="بيضاوي-39" fill="#222222" fill-rule="evenodd" stroke="none" />
    <path d="M1000 647.5C1000 585.368 1050.37 535 1112.5 535C1174.63 535 1225 585.368 1225 647.5C1225 709.632 1174.63 760 1112.5 760C1050.37 760 1000 709.632 1000 647.5Z" id="بيضاوي-25" fill="#2E86C1" fill-rule="evenodd" stroke="none" />
    <path d="M1747 337.5C1747 275.368 1797.37 225 1859.5 225C1921.63 225 1972 275.368 1972 337.5C1972 399.632 1921.63 450 1859.5 450C1797.37 450 1747 399.632 1747 337.5Z" id="بيضاوي-26" fill="#1976D2" fill-rule="evenodd" stroke="none" />
    <path d="M1747 337.5C1747 275.368 1797.37 225 1859.5 225C1921.63 225 1972 275.368 1972 337.5C1972 399.632 1921.63 450 1859.5 450C1797.37 450 1747 399.632 1747 337.5Z" id="بيضاوي-27" fill="#2E86C1" fill-rule="evenodd" stroke="none" />
    <path d="M1243 224.5C1243 162.368 1293.37 112 1355.5 112C1417.63 112 1468 162.368 1468 224.5C1468 286.632 1417.63 337 1355.5 337C1293.37 337 1243 286.632 1243 224.5Z" id="بيضاوي-28" fill="#2E86C1" fill-rule="evenodd" stroke="none" />
    <path d="M864 247.4C864 185.268 914.368 247.4 976.5 247.4C1038.63 247.4 1089 185.268 1089 247.4C1089 309.532 1038.63 359.9 976.5 359.9C914.368 359.9 864 309.532 864 247.4Z" id="بيضاوي-55" fill="#2E86C1" fill-rule="evenodd" stroke="none" />
    <path d="M262 819.5C262 757.368 312.368 707 374.5 707C436.632 707 487 757.368 487 819.5C487 881.632 436.632 932 374.5 932C312.368 932 262 881.632 262 819.5Z" id="بيضاوي-29" fill="#2E86C1" fill-rule="evenodd" stroke="none" />
    <path d="M608 843.5C608 781.368 658.368 731 720.5 731C782.632 731 833 781.368 833 843.5C833 905.632 782.632 956 720.5 956C658.368 956 608 905.632 608 843.5Z" id="بيضاوي-37" fill="#222222" fill-rule="evenodd" stroke="none" />
    <path d="M518 0.5C518 -61.632 568.368 -112 630.5 -112C692.632 -112 743 -61.632 743 0.5C743 62.632 692.632 113 630.5 113C568.368 113 518 62.632 518 0.5Z" id="بيضاوي-42" fill="#222222" fill-rule="evenodd" stroke="none" />
    <path d="M1000 956.5C1000 894.368 1050.37 844 1112.5 844C1174.63 844 1225 894.368 1225 956.5C1225 1018.63 1174.63 1069 1112.5 1069C1050.37 1069 1000 1018.63 1000 956.5Z" id="بيضاوي-30" fill="#2E86C1" fill-rule="evenodd" stroke="none" />
    <path d="M2157 112.5C2157 50.368 2207.37 0 2269.5 0C2331.63 0 2382 50.368 2382 112.5C2382 174.632 2331.63 225 2269.5 225C2207.37 225 2157 174.632 2157 112.5Z" id="بيضاوي-32" fill="#2E86C1" fill-rule="evenodd" stroke="none" />
    <path d="M608 337.5C608 275.368 658.368 225 720.5 225C782.632 225 833 275.368 833 337.5C833 399.632 782.632 450 720.5 450C658.368 450 608 399.632 608 337.5Z" id="بيضاوي-33" fill="#2E86C1" fill-rule="evenodd" stroke="none" />
    <path d="M1427 647.5C1427 585.368 1477.37 535 1539.5 535C1601.63 535 1652 585.368 1652 647.5C1652 709.632 1601.63 760 1539.5 760C1477.37 760 1427 709.632 1427 647.5Z" id="بيضاوي-35" fill="#2E86C1" fill-rule="evenodd" stroke="none" />
    <path d="M2045 1068.5C2045 1006.37 2095.37 956 2157.5 956C2219.63 956 2270 1006.37 2270 1068.5C2270 1130.63 2219.63 1181 2157.5 1181C2095.37 1181 2045 1130.63 2045 1068.5Z" id="بيضاوي-34" fill="#2E86C1" fill-rule="evenodd" stroke="none" />
    <path d="M352 457.5C352 395.368 402.368 345 464.5 345C526.632 345 577 395.368 577 457.5C577 519.632 526.632 570 464.5 570C402.368 570 352 519.632 352 457.5Z" id="بيضاوي-41" fill="#222222" fill-rule="evenodd" stroke="none" />
    <path d="M1837 0.5C1837 -61.632 1887.37 -112 1949.5 -112C2011.63 -112 2062 -61.632 2062 0.5C2062 62.632 2011.63 113 1949.5 113C1887.37 113 1837 62.632 1837 0.5Z" id="بيضاوي-37" fill="#222222" fill-rule="evenodd" stroke="none" />
    <path d="M2567 0.5C2567 -61.632 2617.37 -112 2679.5 -112C2741.63 -112 2792 -61.632 2792 0.5C2792 62.632 2741.63 113 2679.5 113C2617.37 113 2567 62.632 2567 0.5Z" id="بيضاوي-37" fill="#222222" fill-rule="evenodd" stroke="none" />
    <path d="M-107 924.5C-107 862.368 -56.632 812 5.5 812C67.632 812 118 862.368 118 924.5C118 986.632 67.632 1037 5.5 1037C-56.632 1037 -107 986.632 -107 924.5Z" id="بيضاوي-43" fill="#222222" fill-rule="evenodd" stroke="none" />
    <path d="M2269 376.5C2269 314.368 2319.37 264 2381.5 264C2443.63 264 2494 314.368 2494 376.5C2494 438.632 2443.63 489 2381.5 489C2319.37 489 2269 438.632 2269 376.5Z" id="بيضاوي-48" fill="#2E86C1" fill-rule="evenodd" stroke="none" />
    <path d="M2527 641.4C2527 579.268 2577.37 528.9 2639.5 528.9C2701.63 528.9 2752 579.268 2752 641.4C2752 703.532 2701.63 753.9 2639.5 753.9C2577.37 753.9 2527 703.532 2527 641.4Z" id="بيضاوي-57" fill="#2E86C1" fill-rule="evenodd" stroke="none" />
    <path d="M2157 738.5C2157 676.368 2207.37 626 2269.5 626C2331.63 626 2382 676.368 2382 738.5C2382 800.632 2331.63 851 2269.5 851C2207.37 851 2157 800.632 2157 738.5Z" id="بيضاوي-49" fill="#2E86C1" fill-rule="evenodd" stroke="none" />
    <path d="M2638 176.5C2638 114.368 2688.37 64 2750.5 64C2812.63 64 2863 114.368 2863 176.5C2863 238.632 2812.63 289 2750.5 289C2688.37 289 2638 238.632 2638 176.5Z" id="بيضاوي-51" fill="#222222" fill-rule="evenodd" stroke="none" />
    <path d="M1000 787.5C1000 725.368 1050.37 675 1112.5 675C1174.63 675 1225 725.368 1225 787.5C1225 849.632 1174.63 900 1112.5 900C1050.37 900 1000 849.632 1000 787.5Z" id="بيضاوي-56" fill="#222222" fill-rule="evenodd" stroke="none" />
  </g>
  <path d="M2044 1294.5C2044 1232.37 2094.37 1182 2156.5 1182C2218.63 1182 2269 1232.37 2269 1294.5C2269 1356.63 2218.63 1407 2156.5 1407C2094.37 1407 2044 1356.63 2044 1294.5Z" id="بيضاوي-37" fill="#222222" fill-rule="evenodd" stroke="none" />
  <path d="M64 1324.5C64 1262.37 114.368 1212 176.5 1212C238.632 1212 289 1262.37 289 1324.5C289 1386.63 238.632 1437 176.5 1437C114.368 1437 64 1386.63 64 1324.5Z" id="بيضاوي-43" fill="#222222" fill-rule="evenodd" stroke="none" />
  <path d="M401 1213.5C401 1151.37 451.368 1101 513.5 1101C575.632 1101 626 1151.37 626 1213.5C626 1275.63 575.632 1326 513.5 1326C451.368 1326 401 1275.63 401 1213.5Z" id="بيضاوي-44" fill="#2E86C1" fill-rule="evenodd" stroke="none" />
  <path d="M1522 1210.5C1522 1148.37 1572.37 1098 1634.5 1098C1696.63 1098 1747 1148.37 1747 1210.5C1747 1272.63 1696.63 1323 1634.5 1323C1572.37 1323 1522 1272.63 1522 1210.5Z" id="بيضاوي-47" fill="#222222" fill-rule="evenodd" stroke="none" />
</svg>